#N canvas 110 80 980 640 10;
#X text 24 10 Forest Fire OSC Receiver (Pure Data Vanilla);
#X text 24 30 Uses [netreceive -u -b] + [oscparse];
#X text 24 50 Listens on UDP port 9000 (change below if needed);
#X obj 24 84 netreceive -u -b 9000;
#X obj 24 116 oscparse;
#X obj 24 148 list trim;
#X obj 24 180 route fire;
#X obj 24 214 route burning_hi ignitions_spike embers_spike rain;
#X text 24 246 Each message is: state value;
#X obj 24 276 unpack f f;
#X obj 220 276 unpack f f;
#X obj 420 276 unpack f f;
#X obj 620 276 unpack f f;
#X floatatom 24 310 6 0 0 0 burning_state - -;
#X floatatom 100 310 10 0 0 0 burning_value - -;
#X floatatom 220 310 6 0 0 0 ignitions_state - -;
#X floatatom 296 310 10 0 0 0 ignitions_value - -;
#X floatatom 420 310 6 0 0 0 embers_state - -;
#X floatatom 496 310 10 0 0 0 embers_value - -;
#X floatatom 620 310 6 0 0 0 rain_state - -;
#X floatatom 696 310 10 0 0 0 rain_value - -;
#X obj 24 350 sel 1;
#X obj 220 350 sel 1;
#X obj 420 350 sel 1;
#X obj 620 350 sel 1;
#X obj 24 380 bng 15 250 50 0 empty empty burning_bang 0 -6 0 8 -262144 -1 -1;
#X obj 220 380 bng 15 250 50 0 empty empty ignitions_bang 0 -6 0 8 -262144 -1 -1;
#X obj 420 380 bng 15 250 50 0 empty empty embers_bang 0 -6 0 8 -262144 -1 -1;
#X obj 620 380 bng 15 250 50 0 empty empty rain_bang 0 -6 0 8 -262144 -1 -1;
#X text 24 410 Bangs fire when state==1 (rising edge rules recommended);
#X obj 24 450 print OSC_ALL;
#X connect 3 0 4 0;
#X connect 4 0 5 0;
#X connect 5 0 6 0;
#X connect 6 0 7 0;
#X connect 5 0 30 0;
#X connect 7 0 9 0;
#X connect 7 1 10 0;
#X connect 7 2 11 0;
#X connect 7 3 12 0;
#X connect 9 0 13 0;
#X connect 9 1 14 0;
#X connect 10 0 15 0;
#X connect 10 1 16 0;
#X connect 11 0 17 0;
#X connect 11 1 18 0;
#X connect 12 0 19 0;
#X connect 12 1 20 0;
#X connect 13 0 21 0;
#X connect 15 0 22 0;
#X connect 17 0 23 0;
#X connect 19 0 24 0;
#X connect 21 0 25 0;
#X connect 22 0 26 0;
#X connect 23 0 27 0;
#X connect 24 0 28 0;
